<svg xmlns="http://www.w3.org/2000/svg" width="256" height="256" viewBox="0 0 100 100"><rect width="100" height="100" rx="50" fill="#242454"></rect><path fill="#fff" d="M29.71 26.55L29.71 26.55Q30.10 26.40 30.90 26.21Q31.71 26.01 32.56 26.01L32.56 26.01Q35.95 26.01 35.95 28.86L35.95 28.86L35.95 61.82Q35.95 65.28 34.95 67.63Q33.95 69.98 32.21 71.41Q30.48 72.83 28.21 73.45Q25.94 74.06 23.47 74.06L23.47 74.06Q19.08 74.06 17.08 73.02Q15.08 71.98 15.08 70.29L15.08 70.29Q15.08 69.21 15.54 68.44Q16.00 67.67 16.39 67.29L16.39 67.29Q17.54 67.83 19.16 68.29Q20.78 68.75 22.55 68.75L22.55 68.75Q26.01 68.75 27.86 67.09Q29.71 65.44 29.71 61.51L29.71 61.51L29.71 26.55ZM69.52 72.60L69.52 72.60Q69.13 72.98 68.06 73.29Q66.98 73.60 65.67 73.60L65.67 73.60Q64.21 73.60 63.05 73.18Q61.90 72.75 61.51 71.91L61.51 71.91Q60.51 69.90 59.16 66.75Q57.82 63.59 56.31 59.70Q54.81 55.81 53.23 51.50Q51.66 47.19 50.19 42.95Q48.73 38.72 47.42 34.75Q46.11 30.79 45.19 27.63L45.19 27.63Q45.65 27.02 46.57 26.48Q47.50 25.94 48.65 25.94L48.65 25.94Q50.12 25.94 50.81 26.63Q51.50 27.32 51.96 28.71L51.96 28.71Q55.43 38.80 58.59 48.19Q61.74 57.58 65.52 67.29L65.52 67.29L65.82 67.29Q67.52 62.90 69.33 57.93Q71.14 52.96 72.87 47.69Q74.60 42.42 76.26 37.03Q77.91 31.64 79.22 26.48L79.22 26.48Q80.22 25.94 81.84 25.94L81.84 25.94Q83.23 25.94 84.07 26.63Q84.92 27.32 84.92 28.71L84.92 28.71Q84.92 29.86 84.03 33.06Q83.15 36.26 81.76 40.49Q80.38 44.73 78.64 49.58Q76.91 54.43 75.22 58.89Q73.52 63.36 71.98 67.06Q70.44 70.75 69.52 72.60Z"></path></svg>